<svg width="512" height="512" viewBox="0 0 512 512" fill="none" xmlns="http://www.w3.org/2000/svg">
<rect width="512" height="512" fill="url(#paint0_linear_32_48)"/>
<g clip-path="url(#clip0_32_48)">
<path d="M130.866 432.994H113.342L185.988 264.145H113.734C83.013 264.145 105.851 307.285 111.571 321.156L109.002 322.456C105.067 314.001 84 271.301 84 265.671C84 260.041 89.3141 259.382 93.4517 259.382L205.284 259.601L130.866 433V432.994Z" fill="white"/>
<path d="M242.215 324.569H224.69L297.35 155.721H225.083C194.374 155.721 217.213 198.861 222.919 212.732L220.363 214.031C216.428 205.577 195.348 162.877 195.348 157.247C195.348 151.617 200.676 150.957 204.8 150.957L316.645 151.177L242.215 324.576V324.569Z" fill="white"/>
<path d="M353.569 432.994H336.045L408.704 264.145H336.437C305.729 264.145 328.568 307.285 334.274 321.156L331.718 322.456C327.783 314.001 306.703 271.301 306.703 265.671C306.703 260.041 312.03 259.382 316.155 259.382L428 259.601L353.569 433V432.994Z" fill="white"/>
<path d="M173.007 194.685H163.209C154.907 194.685 148.175 188.027 148.175 179.812V166.897C148.168 165.54 147.044 164.441 145.658 164.441C144.272 164.441 143.155 165.54 143.142 166.897V179.812C143.142 188.021 136.409 194.679 128.108 194.679H116.283C114.911 194.692 113.8 195.797 113.8 197.167C113.8 198.538 114.911 199.643 116.283 199.656H128.108C136.409 199.656 143.142 206.313 143.142 214.529V257.333C143.148 258.69 144.272 259.789 145.658 259.789C147.044 259.789 148.162 258.69 148.175 257.333V214.529C148.175 206.32 154.907 199.662 163.209 199.662H173.007C174.379 199.649 175.491 198.544 175.491 197.174C175.491 195.803 174.379 194.698 173.007 194.685Z" fill="white"/>
<path d="M395.723 194.685H385.925C377.624 194.685 370.891 188.027 370.891 179.812V166.897C370.885 165.54 369.76 164.441 368.374 164.441C366.989 164.441 365.871 165.54 365.858 166.897V179.812C365.858 188.021 359.125 194.679 350.824 194.679H339C337.627 194.692 336.516 195.797 336.516 197.167C336.516 198.538 337.627 199.643 339 199.656H350.824C359.125 199.656 365.858 206.313 365.858 214.529V257.333C365.865 258.69 366.989 259.789 368.374 259.789C369.76 259.789 370.878 258.69 370.891 257.333V214.529C370.891 206.32 377.624 199.662 385.925 199.662H395.723C397.096 199.649 398.207 198.544 398.207 197.174C398.207 195.803 397.096 194.698 395.723 194.685Z" fill="white"/>
<path d="M261.628 128.844C337.463 128.844 398.939 117.535 398.939 103.584C398.939 89.6328 337.463 78.3232 261.628 78.3232C185.793 78.3232 124.317 89.6328 124.317 103.584C124.317 117.535 185.793 128.844 261.628 128.844Z" stroke="white" stroke-width="2" stroke-miterlimit="10"/>
</g>
<defs>
<linearGradient id="paint0_linear_32_48" x1="0" y1="0" x2="512" y2="512" gradientUnits="userSpaceOnUse">
<stop/>
<stop offset="0.5" stop-color="#1A1A1A"/>
<stop offset="1"/>
</linearGradient>
<clipPath id="clip0_32_48">
<rect width="344" height="355" fill="white" transform="translate(84 78)"/>
</clipPath>
</defs>
</svg>
